Coordinates
nRows=279
nColumns=2
inDegrees=yes
endheader
time	ankle_angle_r	
3.92515	 18.722234	
3.95842	 18.706034	
3.99168	 18.703517	
4.02494	 18.706665	
4.05821	 18.702839	
4.09147	 18.695110	
4.12474	 18.689140	
4.158	 18.685761	
4.19126	 18.691387	
4.22453	 18.709133	
4.25779	 18.730373	
4.29106	 18.745291	
4.32432	 18.750319	
4.35758	 18.751535	
4.39085	 18.757864	
4.42411	 18.767410	
4.45738	 18.775634	
4.49064	 18.785072	
4.5239	 18.796251	
4.55717	 18.807429	
4.59043	 18.817933	
4.6237	 18.824552	
4.65696	 18.827130	
4.69022	 18.828785	
4.72349	 18.829289	
4.75675	 18.828704	
4.79002	 18.826529	
4.82328	 18.821511	
4.85654	 18.819178	
4.88981	 18.823237	
4.92307	 18.828716	
4.95634	 18.834700	
4.9896	 18.842405	
5.02286	 18.846153	
5.05613	 18.842374	
5.08939	 18.831041	
5.12266	 18.812582	
5.15592	 18.794993	
5.18918	 18.784931	
5.22245	 18.776958	
5.25571	 18.767891	
5.28898	 18.762946	
5.32224	 18.764715	
5.3555	 18.771372	
5.38877	 18.776830	
5.42203	 18.774115	
5.4553	 18.765944	
5.48856	 18.757740	
5.52182	 18.749585	
5.55509	 18.747751	
5.58835	 18.759002	
5.62162	 18.775906	
5.65488	 18.790722	
5.68814	 18.803539	
5.72141	 18.812227	
5.75467	 18.816528	
5.78794	 18.819617	
5.8212	 18.821732	
5.85446	 18.827251	
5.88773	 18.840854	
5.92099	 18.853426	
5.95426	 18.855046	
5.98752	 18.848752	
6.02078	 18.840939	
6.05405	 18.837161	
6.08731	 18.839503	
6.12058	 18.841807	
6.15384	 18.841527	
6.1871	 18.842664	
6.22037	 18.843851	
6.25363	 18.843737	
6.2869	 18.844739	
6.32016	 18.845196	
6.35342	 18.845191	
6.38669	 18.847283	
6.41995	 18.848362	
6.45322	 18.847946	
6.48648	 18.848368	
6.51974	 18.844416	
6.55301	 18.832935	
6.58627	 18.817095	
6.61954	 18.797809	
6.6528	 18.778513	
6.68606	 18.764281	
6.71933	 18.753546	
6.75259	 18.743812	
6.78586	 18.734045	
6.81912	 18.722761	
6.85238	 18.712637	
6.88565	 18.705056	
6.91891	 18.696893	
6.95218	 18.690566	
6.98544	 18.689901	
7.0187	 18.691940	
7.05197	 18.694947	
7.08523	 18.701110	
7.1185	 18.713034	
7.15176	 18.732475	
7.18502	 18.753591	
7.21829	 18.767031	
7.25155	 18.771769	
7.28482	 18.771213	
7.31808	 18.769000	
7.35134	 18.768498	
7.38461	 18.767551	
7.41787	 18.764062	
7.45114	 18.760706	
7.4844	 18.757696	
7.51766	 18.756454	
7.55093	 18.761762	
7.58419	 18.769246	
7.61746	 18.771062	
7.65072	 18.768507	
7.68398	 18.763499	
7.71725	 18.758076	
7.75051	 18.759256	
7.78378	 18.766840	
7.81704	 18.774734	
7.8503	 18.781999	
7.88357	 18.785552	
7.91683	 18.781688	
7.9501	 18.775566	
7.98336	 18.771058	
8.01662	 18.766767	
8.04989	 18.762828	
8.08315	 18.756988	
8.11642	 18.746606	
8.14968	 18.732480	
8.18294	 18.713459	
8.21621	 18.693177	
8.24947	 18.681642	
8.28274	 18.676958	
8.316	 18.670035	
8.34926	 18.663936	
8.38253	 18.664194	
8.41579	 18.668880	
8.44906	 18.675844	
8.48232	 18.681508	
8.51558	 18.683270	
8.54885	 18.686259	
8.58211	 18.694881	
8.61538	 18.707568	
8.64864	 18.721018	
8.6819	 18.730853	
8.71517	 18.738013	
8.74843	 18.749049	
8.7817	 18.760959	
8.81496	 18.765765	
8.84822	 18.766830	
8.88149	 18.770003	
8.91475	 18.774190	
8.94802	 18.777827	
8.98128	 18.779536	
9.01454	 18.779518	
9.04781	 18.781228	
9.08107	 18.784066	
9.11434	 18.787223	
9.1476	 18.794945	
9.18086	 18.806558	
9.21413	 18.816857	
9.24739	 18.823055	
9.28066	 18.822737	
9.31392	 18.818088	
9.34718	 18.814648	
9.38045	 18.812114	
9.41371	 18.810085	
9.44698	 18.809389	
9.48024	 18.807035	
9.5135	 18.805823	
9.54677	 18.811294	
9.58003	 18.818553	
9.6133	 18.821167	
9.64656	 18.818426	
9.67982	 18.810207	
9.71309	 18.798404	
9.74635	 18.784830	
9.77962	 18.770341	
9.81288	 18.762140	
9.84614	 18.765250	
9.87941	 18.773316	
9.91267	 18.779386	
9.94594	 18.779252	
9.9792	 18.771210	
10.0125	 18.762209	
10.0457	 18.756855	
10.079	 18.752866	
10.1123	 18.756040	
10.1455	 18.772848	
10.1788	 18.797122	
10.212	 18.821671	
10.2453	 18.841811	
10.2786	 18.850357	
10.3118	 18.849291	
10.3451	 18.849760	
10.3784	 18.855710	
10.4116	 18.864560	
10.4449	 18.871947	
10.4782	 18.871746	
10.5114	 18.865926	
10.5447	 18.861780	
10.578	 18.858610	
10.6112	 18.854924	
10.6445	 18.853173	
10.6777	 18.851484	
10.711	 18.849480	
10.7443	 18.849766	
10.7775	 18.848362	
10.8108	 18.843539	
10.8441	 18.840972	
10.8773	 18.841659	
10.9106	 18.843701	
10.9439	 18.845779	
10.9771	 18.841885	
11.0104	 18.830438	
11.0436	 18.818724	
11.0769	 18.810968	
11.1102	 18.808439	
11.1434	 18.811690	
11.1767	 18.813478	
11.21	 18.805463	
11.2432	 18.788122	
11.2765	 18.767931	
11.3098	 18.752465	
11.343	 18.741549	
11.3763	 18.729254	
11.4096	 18.720003	
11.4428	 18.720292	
11.4761	 18.723877	
11.5093	 18.723941	
11.5426	 18.720436	
11.5759	 18.716972	
11.6091	 18.722008	
11.6424	 18.738474	
11.6757	 18.759471	
11.7089	 18.779488	
11.7422	 18.792683	
11.7755	 18.794521	
11.8087	 18.791756	
11.842	 18.791033	
11.8752	 18.790370	
11.9085	 18.788003	
11.9418	 18.781805	
11.975	 18.771723	
12.0083	 18.765163	
12.0416	 18.764301	
12.0748	 18.764165	
12.1081	 18.764089	
12.1414	 18.763891	
12.1746	 18.762609	
12.2079	 18.762643	
12.2412	 18.763782	
12.2744	 18.764841	
12.3077	 18.767370	
12.3409	 18.768136	
12.3742	 18.763772	
12.4075	 18.758343	
12.4407	 18.753349	
12.474	 18.747579	
12.5073	 18.744544	
12.5405	 18.743641	
12.5738	 18.739391	
12.6071	 18.730317	
12.6403	 18.714719	
12.6736	 18.694343	
12.7068	 18.681160	
12.7401	 18.679188	
12.7734	 18.677959	
12.8066	 18.673204	
12.8399	 18.667655	
12.8732	 18.659683	
12.9064	 18.650431	
12.9397	 18.646496	
12.973	 18.652670	
13.0062	 18.668304	
13.0395	 18.684044	
13.0728	 18.690249	
13.106	 18.685451	
13.1393	 18.666084	
13.1725	 18.630902	
